# Blender 3.4.1
# www.blender.org
mtllib MiddleMountainScaled.mtl
o Plane
v -11.469098 83.274483 -24.571558
v 6.260334 83.842880 -25.682844
v 22.117323 83.842888 3.225187
v 22.117323 83.842888 13.505169
v 8.141403 83.842880 -18.237755
v 13.897911 83.842880 -14.462441
v 17.677320 83.842888 -6.147752
v 20.247322 83.842888 -1.310106
v 19.189093 83.842896 16.831049
v 11.025559 83.842896 18.342812
v 6.792610 83.842896 21.497814
v -5.150300 83.842896 19.552219
v -17.697933 83.842896 21.497814
v -22.384396 83.842896 15.168109
v -23.952045 83.842888 5.644004
v -21.326157 83.842888 -11.136561
v -19.888924 83.175949 -21.990704
v -5.818305 60.087696 21.689844
v -19.816294 63.953110 23.860584
v 15.430925 37.562649 -16.255396
v 19.646963 37.561306 -6.979983
v -25.044703 64.717941 16.799456
v 22.513935 43.038639 -1.583403
v -26.793596 65.189896 6.174432
v 24.600124 46.906525 3.475914
v -23.864071 69.924408 -12.545822
v 24.600277 54.168034 14.943805
v 21.333708 56.906483 18.654032
v -21.967569 72.943275 -23.112345
v 12.226829 58.894897 22.699724
v -16.581778 81.630081 -32.286114
v 5.701199 82.857643 -37.248875
v 7.504760 59.751472 23.860136
v 4.105564 34.585865 -25.377586
v 6.280844 34.495380 -48.233631
v 8.573332 34.688248 -43.190975
v 27.775234 37.562256 -30.693005
v 33.582203 38.035027 -37.484608
v 15.935285 38.038433 51.825535
v 13.238451 65.209862 42.879868
v -11.196378 64.861267 41.623817
v -13.725620 38.039913 46.993259
v 53.995724 38.035927 6.444332
v 44.591770 52.462624 5.494704
v 44.592045 57.243649 26.527098
v 53.995426 38.037376 31.975409
v 5.797961 35.751930 -62.590321
v 4.887373 82.857658 -51.376755
v 26.448162 38.037704 43.989998
v 21.898838 62.622677 36.424736
v -60.419468 19.834681 -43.865650
v -49.665436 81.256973 -35.952663
v -33.466862 82.853745 -51.377731
v -40.757565 27.949308 -62.589237
v 46.722874 38.037743 40.235428
v 38.601074 62.785641 33.331741
v -79.963966 12.164952 -16.713085
v -52.237976 75.813934 -23.889549
v -61.257492 54.788795 12.415474
v -49.665577 70.960648 10.443856
v -36.869030 69.197708 42.880688
v -44.887768 38.042900 51.824642
v 35.507553 40.729534 -13.681669
v 42.968830 38.034382 -16.834303
v -46.458061 70.600113 29.930407
v -56.526123 49.997326 36.104332
v 40.765640 47.596996 -3.784209
v 49.351650 38.034718 -4.819500
v 99.951691 0.320560 58.602589
v 99.951691 0.320546 11.085054
v 10.248459 0.320510 -117.400871
v -76.401176 0.320510 -117.400871
v 22.826649 0.320519 -87.444046
v 61.958797 0.320523 -70.673134
v 79.428467 0.320534 -32.239830
v 91.307907 0.320540 -9.878600
v 86.416412 0.320564 73.975952
v 48.681808 0.320566 80.963814
v 29.115686 0.320570 95.547318
v -26.088470 0.320568 86.554123
v -84.087875 0.320570 95.547318
v -105.750275 0.320562 66.289276
v -136.609314 -5.660665 22.265650
v -124.471558 -5.660686 -55.299786
v -112.996490 -5.660694 -82.552498
v -67.079422 22.179869 76.576538
v 63.608395 22.179840 -25.555292
v -84.392746 22.179863 53.192516
v 73.102844 22.179846 -7.683436
v -113.796997 5.773085 18.007341
v 80.011253 22.179850 9.071429
v -103.847656 6.893854 -20.716118
v 69.193390 22.179865 59.335964
v -90.184181 7.150505 -65.766876
v 39.034615 22.179867 64.920906
v 8.317375 22.179821 -93.618896
v 23.396706 22.179869 76.576538
v 24.611139 22.179825 -79.632607
v -20.724335 22.179865 69.388870
v 49.646027 22.179831 -56.272491
v 80.011246 22.179859 47.049065
v -60.935955 22.179819 -93.618896
v 44.957809 38.035210 -50.789249
v 22.914263 40.161236 -72.866959
v -18.681459 38.039917 62.851784
v 21.218884 38.038490 69.352249
v 72.418022 38.037472 42.649513
v 72.418427 38.036083 8.304688
v 7.581987 40.469177 -84.561874
v 35.360985 38.037788 58.811745
v -55.045284 31.906137 -84.560417
v -81.494804 15.621988 -65.396904
v 62.634861 38.037823 53.761036
v -82.332779 50.638443 16.349520
v -60.601299 38.042782 69.351044
v 57.584862 38.034588 -23.010118
v -76.257408 49.997112 48.203812
v 66.171135 38.034908 -6.847606
v -175.532928 -5.660665 22.265650
v -163.395187 -5.660686 -55.299786
v -151.920135 -5.660694 -82.552498
v -152.720627 5.773085 18.007341
v -141.167557 6.893847 -41.830788
v -129.107803 7.150505 -65.766876
v -70.993507 56.384529 0.020189
v -91.869263 51.673801 -4.316540
v -70.191719 9.407603 -30.289366
v -94.843575 5.843943 -43.149002
v -12.170947 83.842880 -17.561550
vn -0.0014 1.0000 -0.0020
vn 0.8711 0.0486 -0.4888
vn -0.7893 0.1574 0.5934
vn -0.9714 0.1992 -0.1293
vn -0.0622 0.9912 -0.1169
vn 0.4407 0.1387 0.8869
vn 0.9912 -0.0441 -0.1249
vn -0.9180 0.2225 -0.3283
vn 0.7657 0.0992 0.6355
vn 0.3174 0.1323 0.9390
vn 0.9970 0.0737 -0.0246
vn 0.1655 0.0907 0.9820
vn 0.9094 0.0461 -0.4134
vn 0.5949 0.0594 -0.8016
vn -0.9748 0.1513 0.1640
vn -0.9776 0.1650 -0.1310
vn 0.9149 0.0560 -0.3998
vn -0.0166 0.9988 0.0456
vn -0.3123 0.8135 -0.4907
vn 0.0787 0.9285 0.3628
vn 0.9925 0.0452 0.1137
vn 0.1887 0.9718 -0.1413
vn 0.0227 0.9669 -0.2542
vn 0.2492 0.9683 -0.0142
vn -0.0491 0.9361 0.3482
vn 0.2279 0.9716 -0.0635
vn 0.1953 0.9649 0.1757
vn -0.0172 0.9520 -0.3057
vn -0.2322 0.8703 -0.4343
vn -0.0839 0.9344 -0.3462
vn 0.0733 0.9507 -0.3012
vn -0.1399 0.9877 -0.0698
vn -0.1492 0.9875 -0.0511
vn 0.1631 0.8398 -0.5178
vn -0.1589 0.0923 0.9830
vn -0.2045 0.9591 0.1955
vn -0.0000 1.0000 -0.0000
vn -0.0000 1.0000 -0.0001
vn -0.0852 0.9927 0.0853
vn -0.1442 0.9622 0.2310
vn 0.0001 1.0000 -0.0000
vn 0.0001 1.0000 0.0001
vn -0.1204 0.9787 -0.1663
vn -0.1583 0.9752 0.1547
vn -0.2963 0.9256 0.2354
vn 0.2968 0.8864 0.3551
vn -0.0583 0.9924 0.1084
vn -0.1293 0.9915 -0.0149
vn -0.1098 0.2544 0.9608
vn 0.8757 0.4803 -0.0493
vn 0.9899 0.0194 -0.1406
vn 0.5937 0.3188 0.7388
vn -0.7033 0.2202 -0.6759
vn -0.0198 0.2158 -0.9762
vn 0.1713 0.3175 0.9326
vn -0.8730 0.2526 -0.4172
vn 0.7485 0.4383 0.4977
vn -0.8291 0.5434 -0.1316
vn 0.1204 0.2173 0.9687
vn 0.0771 0.9900 -0.1183
vn -0.6297 0.4124 0.6583
vn 0.4518 0.7543 -0.4764
vn 0.7228 0.5436 -0.4268
vn -0.8202 0.5305 0.2141
vn -0.8188 0.4755 0.3215
vn 0.8511 0.3906 -0.3509
vn 0.8169 0.3800 -0.4340
vn -0.6822 0.3995 0.6123
vn 0.6554 0.3634 -0.6621
vn -0.1478 0.3931 0.9075
vn -0.9005 0.4348 0.0095
vn 0.6597 0.4770 0.5808
vn 0.1678 0.3880 0.9062
vn -0.0355 0.5473 -0.8362
vn -0.6536 0.6876 -0.3164
vn 0.5455 0.4083 0.7319
vn 0.5913 0.3554 -0.7239
vn 0.9019 0.4319 -0.0000
vn 0.1429 0.3614 0.9214
vn 0.8416 0.3812 -0.3826
vn 0.4630 0.4876 -0.7402
vn -0.1247 0.6315 0.7653
vn 0.7388 0.6739 -0.0000
vn 0.7761 0.3711 -0.5099
vn 0.4548 0.6486 0.6103
vn -0.4971 0.8330 -0.2429
vn -0.0000 0.7362 -0.6767
vn 0.1420 0.6257 0.7671
vn -0.0000 -1.0000 -0.0000
vn 0.5218 0.7188 0.4594
vn -0.0000 0.3490 0.9371
vn 0.1233 0.5940 0.7950
vn 0.7159 0.6177 -0.3254
vn -0.5295 0.7523 0.3921
vn 0.6955 0.6163 -0.3695
vn 0.7190 0.6286 -0.2965
vn -0.5448 0.8183 0.1832
vn 0.0219 -0.9998 0.0040
vn -0.3911 0.9035 -0.1753
vn -0.4574 0.8864 -0.0716
vn -0.0059 0.9998 0.0214
vn 0.0159 0.9998 0.0121
vn -0.0000 0.7949 -0.6067
vn 0.1025 0.3258 -0.9399
vn -0.3573 0.8932 0.2731
vn -0.6923 0.7145 -0.1013
vn -0.0375 0.9957 -0.0845
vn -0.0167 0.9991 -0.0379
vn -0.0630 0.9838 -0.1680
vt 0.171851 1.000000
vt 0.578756 1.000000
vt 1.000000 0.396633
vt 1.000000 0.173492
vt 0.637823 0.859323
vt 0.821586 0.780568
vt 0.903624 0.600086
vt 0.959409 0.495078
vt 0.936439 0.101299
vt 0.759238 0.068484
vt 0.667356 0.000000
vt 0.408118 0.042232
vt 0.135754 0.000000
vt 0.034028 0.137395
vt 0.000000 0.344129
vt 0.056999 0.708375
vt 0.000000 0.836353
vt 0.408118 0.042232
vt 0.135754 0.000000
vt 0.821586 0.780568
vt 0.903623 0.600086
vt 0.034028 0.137395
vt 0.959409 0.495078
vt 0.000000 0.344129
vt 1.000000 0.396633
vt 0.056999 0.708375
vt 1.000000 0.173492
vt 0.936439 0.101299
vt 0.000000 0.836353
vt 0.759238 0.068484
vt 0.171851 1.000000
vt 0.578756 1.000000
vt 0.667356 0.000000
vt 0.637823 0.859323
vt 0.637823 0.859323
vt 0.637823 0.859323
vt 0.821586 0.780568
vt 0.821586 0.780568
vt 0.667356 0.000000
vt 0.667356 0.000000
vt 0.408118 0.042232
vt 0.408118 0.042232
vt 1.000000 0.396633
vt 1.000000 0.396633
vt 1.000000 0.173492
vt 1.000000 0.173492
vt 0.578756 1.000000
vt 0.578756 1.000000
vt 0.759238 0.068484
vt 0.759238 0.068484
vt 0.000000 0.836353
vt 0.000000 0.836353
vt 0.171851 1.000000
vt 0.171851 1.000000
vt 0.936439 0.101299
vt 0.936439 0.101299
vt 0.056999 0.708375
vt 0.056999 0.708375
vt 0.000000 0.344129
vt 0.000000 0.344129
vt 0.135754 0.000000
vt 0.135754 0.000000
vt 0.903624 0.600086
vt 0.903623 0.600086
vt 0.034028 0.137395
vt 0.034028 0.137395
vt 0.959409 0.495078
vt 0.959409 0.495078
vt 1.000000 0.173492
vt 1.000000 0.396633
vt 0.578756 1.000000
vt 0.171851 1.000000
vt 0.637823 0.859323
vt 0.821586 0.780568
vt 0.903624 0.600086
vt 0.959409 0.495078
vt 0.936439 0.101299
vt 0.759238 0.068484
vt 0.667356 0.000000
vt 0.408118 0.042232
vt 0.135754 0.000000
vt 0.034028 0.137395
vt 0.000000 0.344129
vt 0.056999 0.708375
vt 0.000000 0.836353
vt 0.135754 0.000000
vt 0.903623 0.600086
vt 0.034028 0.137395
vt 0.959409 0.495078
vt 0.000000 0.344129
vt 1.000000 0.396633
vt 0.056999 0.708375
vt 0.936439 0.101299
vt 0.000000 0.836353
vt 0.759238 0.068484
vt 0.578756 1.000000
vt 0.667356 0.000000
vt 0.637823 0.859323
vt 0.408118 0.042232
vt 0.821586 0.780568
vt 1.000000 0.173492
vt 0.171851 1.000000
vt 0.821586 0.780568
vt 0.637823 0.859323
vt 0.408118 0.042232
vt 0.667356 0.000000
vt 1.000000 0.173492
vt 1.000000 0.396633
vt 0.578756 1.000000
vt 0.759238 0.068484
vt 0.171851 1.000000
vt 0.000000 0.836353
vt 0.936439 0.101299
vt 0.000000 0.344129
vt 0.135754 0.000000
vt 0.903623 0.600086
vt 0.034028 0.137395
vt 0.959409 0.495078
vt 0.000000 0.344129
vt 0.056999 0.708375
vt 0.000000 0.836353
vt 0.000000 0.344129
vt 0.056999 0.708375
vt 0.000000 0.836353
vt 0.028499 0.526252
vt 0.028499 0.526252
vt 0.028499 0.772364
vt 0.028499 0.772364
vt 0.318911 0.847838
s 1
f 15/15/1 14/14/1 13/13/1 12/12/1 11/11/1 10/10/1 9/9/1 4/4/1 3/3/1 8/8/1 7/7/1 6/6/1 5/5/1 129/129/1 17/17/1 16/16/1
f 23/23/2 21/21/2 7/7/2 8/8/2
f 22/22/3 19/19/3 13/13/3 14/14/3
f 29/29/4 26/26/4 16/16/4 17/17/4
f 32/32/5 31/31/5 1/1/5 2/2/5
f 33/33/6 30/30/6 10/10/6 11/11/6
f 34/34/7 32/32/7 2/2/7 5/5/7
f 31/31/8 29/29/8 17/17/8
f 28/28/9 27/27/9 4/4/9 9/9/9
f 30/30/10 28/28/10 9/9/10 10/10/10
f 27/27/11 25/25/11 3/3/11 4/4/11
f 19/19/12 18/18/12 12/12/12 13/13/12
f 21/21/13 20/20/13 6/6/13 7/7/13
f 20/20/14 34/34/14 5/5/14 6/6/14
f 24/24/15 22/22/15 14/14/15 15/15/15
f 26/26/16 24/24/16 15/15/16 16/16/16
f 25/25/17 23/23/17 8/8/17 3/3/17
f 31/31/18 32/32/18 48/48/18 53/53/18
f 21/21/19 23/23/19 67/67/19 63/63/19
f 26/26/20 29/29/20 52/52/20 58/58/20
f 32/32/21 34/34/21 36/36/21 48/48/21
f 18/18/22 19/19/22 61/61/22 41/41/22
f 33/33/23 18/18/23 41/41/23 40/40/23
f 22/22/24 24/24/24 60/60/24 65/65/24
f 29/29/25 31/31/25 53/53/25 52/52/25
f 19/19/26 22/22/26 65/65/26 61/61/26
f 24/24/27 26/26/27 58/58/27 60/60/27
f 28/28/28 30/30/28 50/50/28 56/56/28
f 23/23/29 25/25/29 44/44/29 67/67/29
f 25/25/30 27/27/30 45/45/30 44/44/30
f 30/30/31 33/33/31 40/40/31 50/50/31
f 34/34/32 20/20/32 37/37/32 36/36/32
f 20/20/33 21/21/33 63/63/33 37/37/33
f 27/27/34 28/28/34 56/56/34 45/45/34
f 18/18/35 33/33/35 11/11/35 12/12/35
f 59/59/36 125/125/36 126/126/36 114/114/36
f 55/55/37 49/49/37 110/110/37 113/113/37
f 43/43/38 46/46/37 107/107/37 108/108/38
f 68/68/37 43/43/38 108/108/38 118/118/38
f 38/38/37 64/64/37 116/116/37 103/103/37
f 35/35/39 38/38/39 103/103/39 104/104/39
f 49/49/37 39/39/37 106/106/37 110/110/37
f 64/64/37 68/68/37 118/118/38 116/116/37
f 46/46/37 55/55/37 113/113/37 107/107/37
f 54/54/40 47/47/40 109/109/40 111/111/40
f 42/42/41 62/62/42 115/115/42 105/105/41
f 39/39/37 42/42/41 105/105/41 106/106/37
f 57/57/43 127/127/43 128/128/43 92/92/43
f 47/47/44 35/35/44 104/104/44 109/109/44
f 51/51/45 54/54/45 111/111/45 112/112/45
f 62/62/46 66/66/46 117/117/46 115/115/46
f 66/66/47 59/59/47 114/114/47 117/117/47
f 36/36/48 37/37/48 38/38/48 35/35/48
f 40/40/49 41/41/49 42/42/49 39/39/49
f 44/44/50 45/45/50 46/46/50 43/43/50
f 48/48/51 36/36/51 35/35/51 47/47/51
f 50/50/52 40/40/52 39/39/52 49/49/52
f 52/52/53 53/53/53 54/54/53 51/51/53
f 53/53/54 48/48/54 47/47/54 54/54/54
f 56/56/55 50/50/55 49/49/55 55/55/55
f 58/58/56 52/52/56 51/51/56 127/127/56 57/57/56
f 45/45/57 56/56/57 55/55/57 46/46/57
f 60/60/58 58/58/58 57/57/58 125/125/58 59/59/58
f 41/41/59 61/61/59 62/62/59 42/42/59
f 37/37/60 63/63/60 64/64/60 38/38/60
f 61/61/61 65/65/61 66/66/61 62/62/61
f 63/63/62 67/67/62 68/68/62 64/64/62
f 67/67/63 44/44/63 43/43/63 68/68/63
f 65/65/64 60/60/64 59/59/64 66/66/64
f 90/90/65 88/88/65 117/117/65 114/114/65
f 91/91/66 89/89/66 118/118/66 108/108/66
f 89/89/67 87/87/67 116/116/67 118/118/67
f 88/88/68 86/86/68 115/115/68 117/117/68
f 100/100/69 98/98/69 104/104/69 103/103/69
f 99/99/70 97/97/70 106/106/70 105/105/70
f 92/92/71 90/90/71 114/114/71 126/126/71
f 93/93/72 101/101/72 107/107/72 113/113/72
f 95/95/73 93/93/73 113/113/73 110/110/73
f 96/96/74 102/102/74 111/111/74 109/109/74
f 102/102/75 94/94/75 112/112/75 111/111/75
f 97/97/76 95/95/76 110/110/76 106/106/76
f 98/98/77 96/96/77 109/109/77 104/104/77
f 101/101/78 91/91/78 108/108/78 107/107/78
f 86/86/79 99/99/79 105/105/79 115/115/79
f 87/87/80 100/100/80 103/103/80 116/116/80
f 74/74/81 73/73/81 98/98/81 100/100/81
f 80/80/82 79/79/82 97/97/82 99/99/82
f 69/69/83 70/70/83 91/91/83 101/101/83
f 73/73/84 71/71/84 96/96/84 98/98/84
f 79/79/85 78/78/85 95/95/85 97/97/85
f 72/72/86 85/85/86 94/94/86 102/102/86
f 71/71/87 72/72/87 102/102/87 96/96/87
f 78/78/88 77/77/88 93/93/88 95/95/88
f 85/85/89 84/84/89 120/120/89 121/121/89
f 77/77/90 69/69/90 101/101/90 93/93/90
f 83/83/91 90/90/91 122/122/91 119/119/91
f 81/81/92 80/80/92 99/99/92 86/86/92
f 75/75/93 74/74/93 100/100/93 87/87/93
f 82/82/94 81/81/94 86/86/94 88/88/94
f 76/76/95 75/75/95 87/87/95 89/89/95
f 70/70/96 76/76/96 89/89/96 91/91/96
f 83/83/97 82/82/97 88/88/97 90/90/97
f 70/70/98 69/69/98 77/77/98 78/78/98 79/79/98 80/80/98 81/81/98 82/82/98 83/83/98 84/84/98 85/85/98 72/72/98 71/71/98 73/73/98 74/74/98 75/75/98 76/76/98
f 121/121/99 120/120/99 123/123/99 124/124/99
f 120/120/100 119/119/100 122/122/100 123/123/100
f 90/90/101 92/92/101 123/123/101 122/122/101
f 92/92/102 128/128/102 94/94/102 124/124/102 123/123/102
f 84/84/89 83/83/89 119/119/89 120/120/89
f 94/94/103 85/85/103 121/121/103 124/124/103
f 126/126/104 125/125/104 57/57/104 92/92/104
f 128/128/105 127/127/105 51/51/105 112/112/105
f 94/94/106 128/128/106 112/112/106
f 17/17/107 129/129/107 1/1/107
f 129/129/108 5/5/108 2/2/108 1/1/108
f 1/1/109 31/31/109 17/17/109
