# Blender 3.4.1
# www.blender.org
mtllib TallMountainScaled.mtl
o Plane.001
v -21.143639 61.518665 7.386801
v -19.194103 74.236206 1.365835
v -21.071091 74.236198 -17.156027
v -18.873455 74.236198 -20.041298
v -19.522367 61.518669 22.896757
v -17.841543 61.518669 23.634148
v -0.184274 61.518665 18.498732
v 12.885202 68.196571 19.360426
v 19.674440 68.196571 16.244040
v 23.138727 68.196564 9.525611
v 21.342718 61.518658 -12.250432
v 21.893564 60.195492 -18.304455
v 21.362297 60.195492 -20.112101
v 2.906317 74.236198 -17.389137
v -11.815685 74.236198 -18.318924
v 23.951187 56.119411 -11.212254
v 25.679531 51.616512 -17.318506
v 25.679531 61.973545 9.743378
v 21.314384 61.973545 18.208881
v 12.848880 61.973549 22.094707
v 0.219988 56.119423 21.262060
v -17.127394 56.119423 26.307358
v -21.984659 56.119423 24.176430
v -23.827009 56.119415 6.551492
v -21.984659 67.268166 0.861552
v -23.827009 67.268158 -17.318512
v -19.347849 67.268158 -23.199190
v 23.951187 51.616508 -23.199186
v 2.579231 67.268158 -20.232887
v -10.604769 67.268158 -21.065535
v 15.709160 93.566910 -9.138877
v 16.976156 93.566902 -13.615191
v 17.037117 93.566910 6.962217
v 14.475643 93.566910 11.929785
v 9.455715 93.566917 14.234027
v 0.516247 93.566917 13.596891
v -13.263476 93.566917 17.393993
v -14.506269 93.566917 16.848770
v -15.705028 93.566910 5.380791
v -14.263555 93.566910 -1.698467
v -15.651386 93.566910 -12.766047
v -14.026467 93.566902 -14.899400
v 16.583338 93.566902 -14.951754
v 2.077380 93.566910 -12.938408
v -8.807991 93.566902 -13.625889
v 27.407804 40.647839 23.456516
v 16.540775 40.647839 28.444691
v -30.539417 30.609837 -22.149382
v -24.789606 30.609835 -29.698301
v 33.011261 24.385351 12.589499
v -28.174425 30.609842 1.188053
v 30.792627 24.385344 -14.310882
v -30.539417 30.609844 8.492123
v 33.011261 30.609837 -22.149376
v -28.174425 30.609852 31.116955
v 30.792627 30.609835 -29.698301
v -21.939251 40.647842 33.852375
v 3.357804 30.609835 -25.890505
v 0.329285 40.647839 27.375830
v -13.566272 30.609835 -26.959364
v -38.952778 0.055817 -46.613457
v -48.009712 0.055821 -34.722622
v -44.284443 0.055831 2.037815
v -48.009712 0.055834 13.542969
v -44.284443 0.055844 49.180927
v -34.462978 0.055846 53.489681
v 0.613750 0.055843 43.288021
v 26.149612 0.055843 44.971668
v 43.267036 0.055841 37.114441
v 52.093422 0.055836 19.997036
v 48.598717 0.055824 -22.375652
v 52.093422 0.055821 -34.722607
v 48.598717 0.055817 -46.613457
v 5.384184 0.055819 -40.615528
v -21.274120 0.055819 -42.299171
v 20.601854 40.647842 35.429646
v -30.775532 30.609833 -36.847332
v 34.110554 40.647839 29.228903
v -37.923065 30.609835 -27.463341
v 41.076153 24.385351 15.720220
v -34.983170 30.609842 1.547193
v 38.318195 24.385342 -17.719381
v -37.923065 30.609846 10.626811
v 41.076153 30.609835 -27.463327
v -34.983170 30.609854 38.751514
v 38.318195 30.609833 -36.847332
v -27.232283 40.647842 42.151894
v 4.214234 30.609833 -32.113895
v 0.449511 40.647842 34.100956
v -16.823915 30.609833 -33.442585
v -5.690092 101.271126 13.463408
v -12.865949 102.250679 12.118766
v -14.610668 102.212570 8.434809
v -9.872208 101.237411 7.786718
v -4.312487 93.566910 6.983920
v -7.228104 102.436172 11.853888
v -14.083424 99.986076 2.903816
v -11.535773 93.566910 -7.662177
v -11.109983 93.566910 2.642727
v -15.651386 97.987213 -12.766047
v -13.338009 98.306244 -13.572544
v -11.173757 97.987213 -11.603786
v -11.535773 97.987213 -6.187017
v -11.322879 93.566910 -2.509718
v -10.703991 99.995110 -0.579969
v -14.587995 99.045303 -3.334327
v -9.961617 103.494911 12.244317
v -8.218334 103.602684 12.996222
v -11.194779 103.590378 13.621244
v -10.487525 103.716866 14.846537
v -8.367895 103.710403 14.232137
v -13.430046 102.332481 10.526299
v -12.745176 102.141632 7.426961
v -14.160391 102.042297 5.414931
v -12.030364 102.741592 12.870006
v -11.369075 102.606445 9.952736
vn -0.9697 0.1959 -0.1459
vn 0.9343 0.2075 0.2900
vn 0.9743 0.1996 -0.1048
vn -0.9810 0.1665 0.0994
vn 0.9301 0.2490 0.2701
vn -0.7760 0.2200 -0.5911
vn 0.3946 0.3243 0.8597
vn -0.9796 0.1727 0.1024
vn -0.9603 0.2603 0.1004
vn 0.8909 0.3712 -0.2618
vn 0.8934 0.3646 -0.2626
vn 0.8935 0.3643 -0.2626
vn -0.6479 0.4025 0.6466
vn -0.0727 0.1965 -0.9778
vn 0.2609 0.3564 0.8972
vn 0.0623 0.1535 -0.9862
vn -0.1245 0.3068 0.9436
vn 0.2349 0.1358 -0.9625
vn 0.9105 0.4126 -0.0270
vn 0.9056 0.3811 -0.1864
vn 0.8311 0.3543 0.4286
vn 0.3877 0.3689 0.8447
vn -0.2561 0.4067 0.8769
vn 0.2485 0.4560 0.8546
vn -0.3730 0.3716 0.8502
vn -0.8973 0.4314 0.0938
vn -0.8520 0.3334 0.4036
vn -0.9265 0.3643 0.0939
vn -0.7557 0.3123 -0.5756
vn 0.8935 0.3641 -0.2626
vn 0.1456 0.3710 -0.9171
vn 0.0584 0.3749 -0.9252
vn 0.2183 0.3905 -0.8944
vn -0.7017 0.4020 0.5882
vn 0.9785 0.1398 0.1514
vn -0.9792 0.1909 -0.0682
vn 0.9730 0.2000 -0.1155
vn -0.9614 0.2538 0.1061
vn 0.8602 0.2517 0.4435
vn -0.7483 0.3393 -0.5700
vn 0.4056 0.2334 0.8837
vn 0.9441 0.1781 -0.2775
vn -0.1169 0.1655 0.9793
vn -0.0679 0.1720 -0.9828
vn 0.2705 0.1432 0.9520
vn 0.0614 0.2264 -0.9721
vn -0.3910 0.2294 0.8913
vn 0.2325 0.1951 -0.9528
vn -0.0000 1.0000 -0.0000
vn 0.3951 0.6438 -0.6553
vn 0.3389 0.7200 0.6057
vn -0.6403 0.5947 -0.4863
vn -0.0000 -1.0000 -0.0000
vn 0.2302 0.2399 -0.9431
vn -0.0642 0.2200 0.9734
vn 0.0607 0.2697 -0.9610
vn 0.2728 0.2134 0.9381
vn -0.1327 0.2610 -0.9562
vn -0.5391 0.3585 0.7621
vn 0.8868 0.3817 -0.2606
vn -0.9421 0.3204 0.0985
vn 0.4027 0.2613 0.8773
vn -0.7369 0.3766 -0.5613
vn 0.8984 0.3328 0.2865
vn -0.9518 0.2913 0.0965
vn 0.9133 0.4003 -0.0753
vn 0.9011 0.2773 0.3332
vn -0.9150 0.2738 -0.2963
vn 0.6131 0.3920 -0.6859
vn 0.0054 0.9982 -0.0603
vn 0.6371 0.5212 -0.5678
vn -0.9664 0.1753 0.1880
vn 0.2871 0.1903 0.9388
vn -0.1421 0.9301 -0.3386
vn 0.0649 0.2206 -0.9732
vn 0.2607 0.8452 -0.4665
vn 0.7075 0.5247 -0.4735
vn 0.6828 0.7279 -0.0627
vn 0.4143 0.7679 -0.4885
vn -0.9683 0.1729 -0.1801
vn -0.7074 -0.3526 0.6126
vn -0.9937 -0.0181 0.1107
vn 0.1043 0.9935 -0.0463
vn -0.2944 0.9128 -0.2832
vn 0.9537 0.1528 0.2589
vn 0.3859 0.3783 -0.8414
vn -0.5988 0.1587 -0.7850
vn 0.9930 -0.0967 -0.0678
vn -0.1387 0.9815 -0.1320
vn 0.9954 -0.0281 -0.0914
vn 0.1854 0.9694 -0.1612
vn -0.0229 0.9957 -0.0896
vn 0.0082 0.9984 -0.0551
vn 0.1128 0.9644 -0.2390
vn -0.1069 0.9903 0.0888
vn -0.4092 0.9025 -0.1346
vt 0.077655 0.390911
vt 0.114830 0.505725
vt 0.079038 0.858916
vt 0.120945 0.913935
vt 0.108571 0.095154
vt 0.140622 0.081092
vt 0.477327 0.179019
vt 0.726548 0.162587
vt 0.856011 0.222014
vt 0.922071 0.350127
vt 0.887823 0.765372
vt 0.920499 0.880816
vt 0.910368 0.915285
vt 0.536261 0.863361
vt 0.255529 0.881092
vt 0.965089 0.757872
vt 1.000000 0.881214
vt 1.000000 0.334581
vt 0.911827 0.163584
vt 0.740829 0.085093
vt 0.485734 0.101912
vt 0.135328 0.000000
vt 0.037214 0.043043
vt 0.000000 0.399056
vt 0.037214 0.513989
vt 0.000000 0.881214
vt 0.090476 1.000000
vt 0.965089 1.000000
vt 0.533389 0.940083
vt 0.267081 0.956902
vt 0.887823 0.765372
vt 0.920499 0.880816
vt 0.922071 0.350127
vt 0.856011 0.222014
vt 0.726548 0.162587
vt 0.477327 0.179019
vt 0.140622 0.081092
vt 0.108571 0.095154
vt 0.077655 0.390911
vt 0.114830 0.505725
vt 0.079038 0.858916
vt 0.120945 0.913935
vt 0.910368 0.915285
vt 0.536261 0.863361
vt 0.255529 0.881092
vt 0.911827 0.163584
vt 0.740829 0.085093
vt 0.000000 0.881214
vt 0.090476 1.000000
vt 1.000000 0.334581
vt 0.037214 0.513989
vt 0.965089 0.757872
vt 0.000000 0.399056
vt 1.000000 0.881214
vt 0.037214 0.043043
vt 0.965089 1.000000
vt 0.135328 0.000000
vt 0.533389 0.940083
vt 0.485734 0.101912
vt 0.267081 0.956902
vt 0.090476 1.000000
vt 0.000000 0.881214
vt 0.037214 0.513989
vt 0.000000 0.399056
vt 0.037214 0.043043
vt 0.135328 0.000000
vt 0.485734 0.101912
vt 0.740829 0.085093
vt 0.911827 0.163584
vt 1.000000 0.334581
vt 0.965089 0.757872
vt 1.000000 0.881214
vt 0.965089 1.000000
vt 0.533389 0.940083
vt 0.267081 0.956902
vt 0.740829 0.085093
vt 0.090476 1.000000
vt 0.911827 0.163584
vt 0.000000 0.881214
vt 1.000000 0.334581
vt 0.037214 0.513989
vt 0.965089 0.757872
vt 0.000000 0.399056
vt 1.000000 0.881214
vt 0.037214 0.043043
vt 0.965089 1.000000
vt 0.135328 0.000000
vt 0.533389 0.940083
vt 0.485734 0.101912
vt 0.267081 0.956902
vt 0.477327 0.179019
vt 0.108571 0.095154
vt 0.077655 0.390911
vt 0.196161 0.395345
vt 0.277491 0.284965
vt 0.277491 0.284965
vt 0.333012 0.255530
vt 0.114830 0.505725
vt 0.185180 0.693408
vt 0.196161 0.395345
vt 0.079038 0.858916
vt 0.120945 0.913935
vt 0.255529 0.881092
vt 0.185180 0.693408
vt 0.190670 0.544376
vt 0.190670 0.544376
vt 0.096934 0.682320
vt 0.162004 0.112941
vt 0.000000 0.000000
vt 0.210676 0.144610
vt 0.000000 0.000000
vt 0.133755 0.084105
vt 0.000000 0.000000
vt 0.140622 0.081092
vt 0.000000 0.000000
vt 0.212794 0.102083
vt 0.000000 0.000000
vt 0.098575 0.190777
vt 0.156329 0.349201
vt 0.093068 0.438513
vt 0.121163 0.089629
vt 0.193031 0.190060
s 1
f 51/51/1 53/53/1 24/24/1 25/25/1
f 52/52/2 54/54/2 17/17/2 16/16/2
f 50/50/3 52/52/3 16/16/3 18/18/3
f 48/48/4 51/51/4 25/25/4 26/26/4
f 46/46/5 50/50/5 18/18/5 19/19/5
f 49/49/6 48/48/6 26/26/6 27/27/6
f 47/47/7 46/46/7 19/19/7 20/20/7
f 1/1/8 5/5/8 38/38/8 39/39/8
f 53/53/9 55/55/9 23/23/9 24/24/9
f 54/54/10 56/56/10 28/28/11 17/17/12
f 55/55/13 57/57/13 22/22/13 23/23/13
f 56/56/14 58/58/14 29/29/14 28/28/14
f 57/57/15 59/59/15 21/21/15 22/22/15
f 58/58/16 60/60/16 30/30/16 29/29/16
f 59/59/17 47/47/17 20/20/17 21/21/17
f 60/60/18 49/49/18 27/27/18 30/30/18
f 12/12/19 11/11/19 16/16/19 17/17/19
f 11/11/20 10/10/20 18/18/20 16/16/20
f 10/10/21 9/9/21 19/19/21 18/18/21
f 9/9/22 8/8/22 20/20/22 19/19/22
f 8/8/23 7/7/23 21/21/23 20/20/23
f 7/7/24 6/6/24 22/22/24 21/21/24
f 6/6/25 5/5/25 23/23/25 22/22/25
f 5/5/26 1/1/26 24/24/26 23/23/26
f 1/1/27 2/2/27 25/25/27 24/24/27
f 2/2/28 3/3/28 26/26/28 25/25/28
f 3/3/29 4/4/29 27/27/29 26/26/29
f 13/13/30 12/12/30 17/17/12 28/28/11
f 14/14/31 13/13/31 28/28/31 29/29/31
f 15/15/32 14/14/32 29/29/32 30/30/32
f 4/4/33 15/15/33 30/30/33 27/27/33
f 38/38/34 37/37/34 110/114/34 109/112/34 115/121/34 92/92/34
f 11/11/35 12/12/35 32/32/35 31/31/35
f 2/2/36 1/1/36 39/39/36 40/40/36
f 10/10/37 11/11/37 31/31/37 33/33/37
f 3/3/38 2/2/38 40/40/38 41/41/38
f 9/9/39 10/10/39 33/33/39 34/34/39
f 4/4/40 3/3/40 41/41/40 42/42/40
f 8/8/41 9/9/41 34/34/41 35/35/41
f 12/12/42 13/13/42 43/43/42 32/32/42
f 7/7/43 8/8/43 35/35/43 36/36/43
f 13/13/44 14/14/44 44/44/44 43/43/44
f 6/6/45 7/7/45 36/36/45 37/37/45
f 14/14/46 15/15/46 45/45/46 44/44/46
f 5/5/47 6/6/47 37/37/47 38/38/47
f 15/15/48 4/4/48 42/42/48 45/45/48
f 51/51/49 48/48/49 79/79/49 81/81/49
f 59/59/49 57/57/49 87/87/49 89/89/49
f 50/50/50 46/46/50 78/78/50 80/80/50
f 60/60/49 58/58/49 88/88/49 90/90/49
f 48/48/49 49/49/49 77/77/49 79/79/49
f 47/47/49 59/59/49 89/89/49 76/76/49
f 46/46/49 47/47/49 76/76/49 78/78/49
f 49/49/49 60/60/49 90/90/49 77/77/49
f 55/55/49 53/53/49 83/83/49 85/85/49
f 53/53/49 51/51/49 81/81/49 83/83/49
f 56/56/49 54/54/49 84/84/49 86/86/49
f 54/54/51 52/52/51 82/82/51 84/84/51
f 57/57/52 55/55/52 85/85/52 87/87/52
f 52/52/49 50/50/49 80/80/49 82/82/49
f 58/58/49 56/56/49 86/86/49 88/88/49
f 64/64/53 63/63/53 62/62/53 61/61/53 75/75/53 74/74/53 73/73/53 72/72/53 71/71/53 70/70/53 69/69/53 68/68/53 67/67/53 66/66/53 65/65/53
f 75/75/54 61/61/54 77/77/54 90/90/54
f 67/67/55 68/68/55 76/76/55 89/89/55
f 74/74/56 75/75/56 90/90/56 88/88/56
f 66/66/57 67/67/57 89/89/57 87/87/57
f 73/73/58 74/74/58 88/88/58 86/86/58
f 65/65/59 66/66/59 87/87/59 85/85/59
f 72/72/60 73/73/60 86/86/60 84/84/60
f 64/64/61 65/65/61 85/85/61 83/83/61
f 68/68/62 69/69/62 78/78/62 76/76/62
f 61/61/63 62/62/63 79/79/63 77/77/63
f 69/69/64 70/70/64 80/80/64 78/78/64
f 62/62/65 63/63/65 81/81/65 79/79/65
f 70/70/66 71/71/66 82/82/66 80/80/66
f 71/71/67 72/72/67 84/84/67 82/82/67
f 63/63/68 64/64/68 83/83/68 81/81/68
f 95/96/69 99/100/69 40/40/69 97/98/69 94/95/69
f 93/93/70 112/118/70 113/119/70
f 95/96/71 94/95/71 96/97/71
f 39/39/72 38/38/72 92/92/72 112/118/72 93/93/72
f 37/37/73 36/36/73 91/91/73 111/116/73 110/114/73
f 94/95/74 116/122/74 115/121/74 109/112/74 107/108/74
f 94/95/75 95/96/75 39/39/75 93/93/75 113/119/75
f 96/97/76 94/95/76 107/108/76 108/110/76
f 36/36/77 95/96/77 96/97/77 91/91/77
f 91/91/78 96/97/78 108/110/78 111/116/78
f 99/100/49 95/96/49 36/36/49 35/35/49 34/34/49 33/33/49 31/31/49 32/32/49 43/43/49 44/44/49 45/45/49 98/99/49 104/105/49
f 97/98/79 114/120/79 113/119/79 94/95/79
f 40/40/80 39/39/80 93/93/80 114/120/80 97/98/80
f 40/40/81 99/100/81 94/94/81 97/98/81
f 41/41/82 40/40/82 97/98/82 106/107/82 100/101/82
f 100/101/83 106/107/83 103/104/83 102/103/83 101/102/83
f 97/98/84 105/106/84 103/104/84
f 98/99/85 45/45/85 102/103/85 103/104/85
f 45/45/86 42/42/86 101/102/86 102/103/86
f 42/42/87 41/41/87 100/101/87 101/102/87
f 99/100/88 104/105/88 105/106/88 94/94/88
f 105/106/89 97/98/89 94/94/89
f 105/106/90 104/105/90 98/99/90 103/104/90
f 103/104/91 106/107/91 97/98/91
f 108/111/92 107/109/92 111/117/92
f 110/115/92 107/109/92 109/113/92
f 107/109/92 110/115/92 111/117/92
f 113/119/93 114/120/93 93/93/93
f 113/119/94 112/118/94 116/122/94 94/95/94
f 116/122/95 112/118/95 92/92/95
f 115/121/96 116/122/96 92/92/96
