# This file uses centimeters as units for non-parametric coordinates.

mtllib rock_3.mtl
g default
v 0.138982 0.330576 -1.389022
v 0.472052 1.653401 -0.659936
v -0.097129 0.977298 -0.546802
v -0.609121 0.330576 -0.688232
v 0.555488 -1.058742 -0.727593
v 1.577057 0.504251 -0.727593
v 1.611206 0.883994 0.538806
v 0.067808 0.977298 0.171121
v -0.504745 0.430566 0.171121
v -0.451673 -0.972393 0.189484
v 1.382307 -1.758747 0.028483
v 0.722801 -0.139070 0.656054
vt 1.000000 0.500000
vt 0.838104 0.676208
vt 0.088104 0.823792
vt 0.176208 0.500000
vt 0.088104 0.176208
vt 0.838104 0.323792
vt 0.676208 0.500000
vt 0.588104 0.823792
vt 0.338104 0.676208
vt 0.338104 0.323792
vt 0.588104 0.176208
vt 0.500000 0.500000
vt 1.088104 0.823792
vt 1.176208 0.500000
vt 1.088104 0.176208
vn -0.678736 0.478123 -0.557419
vn -0.678736 0.478123 -0.557419
vn -0.678736 0.478123 -0.557419
vn -0.559852 0.573917 -0.597650
vn -0.559852 0.573917 -0.597650
vn -0.559852 0.573917 -0.597650
vn -0.598419 -0.483532 -0.638821
vn -0.598419 -0.483532 -0.638821
vn -0.598419 -0.483531 -0.638821
vn 0.428845 -0.280292 -0.858795
vn 0.428845 -0.280292 -0.858795
vn 0.428845 -0.280292 -0.858795
vn 0.347106 0.384142 -0.855542
vn 0.347106 0.384142 -0.855542
vn 0.347106 0.384142 -0.855542
vn -0.739684 0.651144 0.169937
vn -0.739684 0.651144 0.169937
vn -0.739684 0.651144 0.169937
vn -0.786337 0.617343 0.023676
vn -0.786338 0.617343 0.023676
vn -0.786337 0.617343 0.023676
vn -0.608636 -0.492571 -0.622042
vn -0.608636 -0.492571 -0.622042
vn -0.608636 -0.492571 -0.622042
vn 0.481530 -0.314727 -0.817971
vn 0.481530 -0.314727 -0.817971
vn 0.481530 -0.314727 -0.817971
vn 0.695995 0.682411 -0.223396
vn 0.695995 0.682411 -0.223396
vn 0.695995 0.682411 -0.223396
vn -0.094928 0.794318 0.600039
vn -0.094928 0.794318 0.600039
vn -0.094928 0.794319 0.600039
vn -0.682079 0.714292 0.156703
vn -0.682079 0.714292 0.156703
vn -0.682079 0.714292 0.156703
vn -0.991557 -0.035879 0.124608
vn -0.991557 -0.035879 0.124608
vn -0.991557 -0.035879 0.124608
vn -0.394665 -0.848068 -0.353581
vn -0.394665 -0.848068 -0.353581
vn -0.394665 -0.848068 -0.353581
vn 0.996287 -0.086090 -0.001050
vn 0.996287 -0.086090 -0.001050
vn 0.996287 -0.086090 -0.001050
vn -0.205686 0.285875 0.935932
vn -0.205685 0.285875 0.935932
vn -0.205685 0.285875 0.935932
vn -0.248102 0.259820 0.933241
vn -0.248102 0.259820 0.933241
vn -0.248102 0.259820 0.933241
vn -0.368117 -0.001756 0.929778
vn -0.368117 -0.001756 0.929778
vn -0.368117 -0.001756 0.929778
vn -0.086989 -0.390524 0.916474
vn -0.086989 -0.390524 0.916474
vn -0.086989 -0.390524 0.916474
vn 0.358338 -0.206837 0.910391
vn 0.358338 -0.206837 0.910391
vn 0.358338 -0.206837 0.910391
s off
g pPlatonic1
usemtl initialShadingGroup
f 1/1/1 3/13/2 2/2/3
f 1/1/4 4/14/5 3/13/6
f 1/1/7 5/15/8 4/14/9
f 1/1/10 6/6/11 5/15/12
f 1/1/13 2/2/14 6/6/15
f 2/2/16 3/13/17 8/8/18
f 3/3/19 4/4/20 9/9/21
f 4/4/22 5/5/23 10/10/24
f 5/15/25 6/6/26 11/11/27
f 6/6/28 2/2/29 7/7/30
f 2/2/31 8/8/32 7/7/33
f 3/3/34 9/9/35 8/8/36
f 4/4/37 10/10/38 9/9/39
f 5/5/40 11/11/41 10/10/42
f 6/6/43 7/7/44 11/11/45
f 7/7/46 8/8/47 12/12/48
f 8/8/49 9/9/50 12/12/51
f 9/9/52 10/10/53 12/12/54
f 10/10/55 11/11/56 12/12/57
f 11/11/58 7/7/59 12/12/60
