# This file uses centimeters as units for non-parametric coordinates.

mtllib rock_9.mtl
g default
v 0.291333 -0.968211 -1.250723
v -0.583510 -0.977149 -1.063561
v 0.422917 -1.058037 -0.256388
v 0.468125 -0.939577 -0.853799
v 0.250006 -0.629795 -1.360225
v -0.777497 -0.510962 -0.917849
v -0.879325 -0.995644 -0.584608
v 0.063240 -0.676750 0.657128
v 0.606943 -0.531386 -0.895739
v -0.093976 0.429622 -1.251075
v -0.630544 0.611719 -0.790463
v -0.716392 -0.032726 -0.033757
v -0.365226 0.286048 0.117280
v 0.943725 0.396904 -0.837343
v 0.299898 1.458580 -1.089531
v -0.657065 1.446628 -0.713764
v -0.657065 1.416269 -0.341914
v -0.145145 1.411039 -0.232396
v 0.899003 0.655099 -0.787648
v -0.159043 1.627436 -0.570617
v 0.582926 -0.998586 -0.502618
v 0.357368 -0.383477 -0.000124
v 0.463033 0.703159 0.094820
v 0.440206 1.210557 -0.421191
v 0.476542 -0.958871 -1.121229
v 0.496180 -0.646713 -1.174317
v 0.512589 -0.150409 -1.290767
v 0.580252 0.926126 -0.961840
v -0.350347 -0.511835 -1.110426
v -0.254991 0.477113 -0.894689
v -0.190631 1.434774 -1.140191
v -0.168436 -0.050983 -1.246123
v 0.354018 -0.099335 -0.011630
v -0.364610 0.173939 0.361358
v -0.776929 -0.353696 -0.021699
v -0.781761 -0.040266 -0.914974
v -0.381817 -0.055962 -1.422909
v 0.454362 0.927995 -0.373047
v -0.142813 -0.508768 -1.155947
v -0.426982 1.846493 -1.026131
vt 0.000000 0.200000
vt 0.222239 0.209726
vt 0.607705 0.165853
vt 0.800000 0.200000
vt 1.000000 0.200000
vt -0.002153 0.327376
vt 0.224367 0.370113
vt 0.384138 0.330514
vt 0.609895 0.335092
vt 0.807048 0.389803
vt 0.995680 0.333276
vt 0.057910 0.589696
vt 0.178853 0.609830
vt 0.393887 0.592409
vt 0.538055 0.589139
vt 0.813098 0.581978
vt 1.048380 0.452371
vt 0.000000 0.800000
vt 0.200000 0.800000
vt 0.400000 0.800000
vt 0.555717 0.807038
vt 0.810683 0.668322
vt 1.000000 0.800000
vt 0.131503 0.164110
vt 0.872595 0.050820
vt 0.927616 0.172081
vt 0.100000 1.000000
vt 0.300000 1.000000
vt 0.500000 1.000000
vt 0.700000 1.000000
vt 0.900000 1.000000
vt 0.685603 0.200000
vt 0.689495 0.403052
vt 0.685603 0.600000
vt 0.685603 0.800000
vt 0.934752 0.200000
vt 0.917467 0.338065
vt 0.940543 0.477918
vt 0.913325 0.706646
vt 0.100891 0.331703
vt 0.106652 0.609503
vt 0.101494 0.800371
vt 1.048955 0.320758
vt 0.061236 0.488505
vt 0.685603 0.492268
vt 0.574482 0.517906
vt 0.400000 0.492268
vt 0.200000 0.492268
vt 0.102518 0.492268
vt 0.685603 0.692757
vt 0.064492 0.330850
vt 0.153801 0.892399
vt 0.246199 0.892399
vn -0.512877 -0.320341 -0.796454
vn -0.185577 -0.309353 -0.932664
vn -0.509317 -0.279010 -0.814094
vn -0.833151 -0.183633 -0.521669
vn -0.833151 -0.183633 -0.521669
vn -0.833151 -0.183633 -0.521669
vn -0.098824 -0.973323 0.207068
vn -0.098824 -0.973323 0.207068
vn -0.098824 -0.973323 0.207068
vn -0.098824 -0.973323 0.207068
vn 0.902297 -0.073690 0.424771
vn 0.971505 -0.007546 0.236900
vn 0.932966 -0.049282 0.356574
vn 0.902297 -0.073690 0.424771
vn 0.965470 -0.228808 -0.124556
vn 0.861662 -0.224454 -0.455147
vn 0.862515 -0.224552 -0.453481
vn 0.965470 -0.228808 -0.124556
vn -0.126895 0.039326 -0.991136
vn -0.995247 0.096027 -0.016220
vn -0.995247 0.096027 -0.016220
vn -0.988360 0.149774 0.026677
vn -0.986835 0.158227 0.033465
vn -0.665793 -0.269678 0.695696
vn -0.665793 -0.269678 0.695696
vn -0.706100 -0.174203 0.686350
vn -0.678064 -0.242656 0.693792
vn 0.643727 0.418136 0.640919
vn 0.835865 0.066144 0.544935
vn 0.783205 0.003485 0.621754
vn 0.460409 0.280190 0.842328
vn 0.870570 -0.233485 -0.433120
vn 0.633670 -0.121059 -0.764073
vn 0.622064 -0.129661 -0.772156
vn 0.870570 -0.233485 -0.433120
vn 0.218298 0.392874 0.893306
vn 0.052258 0.862361 0.503590
vn 0.494820 0.360152 0.790850
vn 0.579701 0.213131 -0.786462
vn 0.348649 0.256992 -0.901332
vn 0.412338 0.143803 -0.899610
vn 0.579701 0.213131 -0.786462
vn -0.209241 0.003997 -0.977856
vn -0.209241 0.003997 -0.977856
vn -0.209241 0.003997 -0.977856
vn 0.072743 -0.979339 -0.188689
vn 0.072743 -0.979339 -0.188689
vn 0.072743 -0.979339 -0.188689
vn 0.072743 -0.979339 -0.188689
vn 0.020622 -0.997813 0.062797
vn 0.020622 -0.997813 0.062797
vn 0.020622 -0.997813 0.062797
vn 0.020622 -0.997813 0.062797
vn 0.426221 0.849486 -0.310981
vn 0.251715 0.817851 -0.517455
vn 0.040787 0.714578 -0.698365
vn 0.426221 0.849486 -0.310981
vn -0.410464 0.827789 0.382472
vn -0.410464 0.827789 0.382472
vn -0.410464 0.827789 0.382472
vn -0.410464 0.827789 0.382472
vn -0.106769 0.835532 0.538968
vn -0.106769 0.835532 0.538968
vn -0.106769 0.835532 0.538968
vn 0.575789 0.817062 -0.029611
vn 0.575789 0.817062 -0.029611
vn 0.575789 0.817062 -0.029611
vn 0.575789 0.817062 -0.029611
vn 0.732099 0.636784 0.241946
vn 0.732099 0.636784 0.241946
vn 0.732099 0.636784 0.241946
vn 0.732099 0.636784 0.241946
vn 0.993804 0.037080 0.104783
vn 0.993804 0.037080 0.104783
vn 0.876167 -0.232216 0.422383
vn 0.887812 -0.258873 0.380492
vn 0.819999 0.410860 0.398492
vn 0.821608 0.422309 0.382903
vn 0.578562 -0.179554 -0.795629
vn 0.578562 -0.179554 -0.795629
vn 0.029181 0.024098 -0.999284
vn 0.157322 0.056677 -0.985920
vn 0.250029 0.210962 -0.944976
vn -0.408164 0.113291 -0.905852
vn -0.322639 0.066576 -0.944178
vn -0.385281 0.100672 -0.917291
vn -0.584209 0.189216 -0.789238
vn -0.462126 0.139438 -0.875783
vn -0.424309 -0.324012 -0.845564
vn -0.625637 -0.268831 -0.732330
vn -0.065434 -0.000144 -0.997857
vn 0.656817 -0.065998 0.751157
vn 0.235722 0.117231 0.964724
vn -0.778936 0.395567 0.486606
vn -0.778936 0.395567 0.486606
vn -0.976349 0.204323 0.070678
vn -0.976349 0.204323 0.070678
vn -0.451563 0.505164 -0.735459
vn -0.470979 0.507808 -0.721325
vn 0.399944 -0.009206 -0.916494
vn 0.403311 0.198513 0.893271
vn 0.374383 0.201070 0.905212
vn -0.366242 0.267528 0.891233
vn -0.366242 0.267528 0.891233
vn -0.366242 0.267528 0.891233
vn -0.366242 0.267528 0.891233
vn -0.997405 0.007066 -0.071646
vn -0.997405 0.007066 -0.071646
vn -0.997405 0.007066 -0.071646
vn -0.997405 0.007066 -0.071646
vn -0.484473 -0.005373 -0.874790
vn -0.488746 -0.009978 -0.872369
vn -0.540349 -0.067574 -0.838723
vn -0.540350 -0.067574 -0.838723
vn -0.422285 0.059178 -0.904530
vn -0.422285 0.059178 -0.904530
vn -0.214365 0.009044 -0.976712
vn -0.333236 0.483886 -0.809202
vn -0.666002 -0.181910 -0.723429
s 1
g pSphere1
usemtl initialShadingGroup
f 1/1/1 39/51/2 5/6/3
s off
f 2/2/4 7/8/5 6/7/6
f 2/2/7 3/3/8 8/9/9 7/8/10
s 2
f 3/3/11 21/32/12 22/33/13 8/9/14
s 3
f 4/4/15 25/36/16 26/37/17 9/10/18
s 1
f 5/6/3 39/51/2 32/44/19
s 4
f 6/7/20 7/8/21 35/47/22 36/48/23
s 5
f 7/8/24 8/9/25 34/46/26 35/47/27
s 6
f 8/9/28 22/33/29 33/45/30 34/46/31
s 7
f 9/10/32 26/37/33 27/38/34 14/16/35
s 8
f 13/15/36 23/34/37 38/50/38
s 9
f 14/16/39 27/38/40 28/39/41 19/22/42
s off
f 39/51/43 1/1/44 2/24/45
f 4/4/46 21/32/47 3/3/48 2/25/49
f 1/5/50 25/36/51 4/4/52 2/26/53
s 10
f 15/18/54 31/42/55 40/52/56 20/27/57
s off
f 16/19/58 17/20/59 20/28/60 40/53/61
f 17/20/62 18/21/63 20/29/64
f 18/21/65 24/35/66 19/22/67 20/30/68
f 19/22/69 28/39/70 15/23/71 20/31/72
s 2
f 9/10/73 22/33/13 21/32/12 4/4/74
s 6
f 14/16/75 33/45/30 22/33/29 9/10/76
s 8
f 19/22/77 38/50/38 23/34/37 14/16/78
s 3
f 5/11/79 26/37/17 25/36/16 1/5/80
s 7
f 32/43/81 27/38/34 26/37/33 5/11/82
s 9
f 10/17/83 28/39/41 27/38/40
s 11
f 6/7/84 29/40/85 2/2/86
s 1
f 36/48/87 37/49/88 29/40/89 6/7/90
s 7
f 27/38/34 32/43/81 10/17/91
s 6
f 23/34/92 33/45/30 14/16/75
f 34/46/31 33/45/30 23/34/92 13/15/93
s 5
f 35/47/27 34/46/26 13/15/94 12/14/95
s 4
f 36/48/23 35/47/22 12/14/96 11/13/97
s 1
f 30/41/98 37/49/88 36/48/87 11/13/99
s 9
f 28/39/41 10/17/83 15/23/100
s 8
f 24/35/101 38/50/38 19/22/77
f 13/15/36 38/50/38 24/35/101 18/21/102
s off
f 12/14/103 13/15/104 18/21/105 17/20/106
f 11/13/107 12/14/108 17/20/109 16/19/110
s 13
f 31/42/111 30/41/112 11/13/113 16/19/114
f 10/12/115 30/41/112 31/42/111 15/18/116
s 11
f 39/51/117 2/2/86 29/40/85
s 1
f 32/44/19 39/51/2 29/40/89 37/49/88
f 10/12/118 32/44/19 37/49/88 30/41/98
s 10
f 40/52/56 31/42/55 16/19/119
