# This file uses centimeters as units for non-parametric coordinates.

mtllib rock_4.mtl
g default
v 0.281267 0.391423 -0.407162
v 0.828452 0.685312 0.560210
v -0.198331 0.923111 0.194150
v -0.676591 -0.067465 -0.517755
v -0.092223 -0.902628 -0.776761
v 0.938821 -0.243312 -0.672378
v 1.051617 0.101611 0.501058
v 0.103797 0.833460 0.774337
v -0.558173 0.256834 0.730411
v -0.616648 -0.965186 0.332162
v 0.606357 -1.010013 0.227779
v 0.090284 -0.344532 1.121898
vt 1.000000 0.500000
vt 0.838104 0.676208
vt 0.088104 0.823792
vt 0.176208 0.500000
vt 0.088104 0.176208
vt 0.838104 0.323792
vt 0.676208 0.500000
vt 0.588104 0.823792
vt 0.338104 0.676208
vt 0.338104 0.323792
vt 0.588104 0.176208
vt 0.500000 0.500000
vt 1.088104 0.823792
vt 1.176208 0.500000
vt 1.088104 0.176208
vn 0.350224 0.822580 -0.448001
vn 0.350224 0.822580 -0.448001
vn 0.350224 0.822580 -0.448001
vn -0.219926 0.637098 -0.738741
vn -0.219926 0.637098 -0.738741
vn -0.219926 0.637098 -0.738741
vn -0.023797 0.280898 -0.959442
vn -0.023797 0.280898 -0.959442
vn -0.023797 0.280899 -0.959442
vn -0.094798 0.298597 -0.949659
vn -0.094798 0.298597 -0.949659
vn -0.094798 0.298597 -0.949659
vn 0.491445 0.716175 -0.495556
vn 0.491445 0.716175 -0.495556
vn 0.491445 0.716175 -0.495556
vn 0.211654 0.976498 0.040671
vn 0.211654 0.976498 0.040671
vn 0.211654 0.976498 0.040671
vn -0.890400 0.453947 -0.033470
vn -0.890400 0.453947 -0.033470
vn -0.890400 0.453947 -0.033470
vn -0.803474 -0.436714 -0.404610
vn -0.803474 -0.436714 -0.404610
vn -0.803474 -0.436714 -0.404610
vn 0.515504 -0.736920 -0.437270
vn 0.515504 -0.736920 -0.437270
vn 0.515504 -0.736920 -0.437270
vn 0.909284 0.367447 -0.195412
vn 0.909284 0.367447 -0.195412
vn 0.909284 0.367447 -0.195412
vn 0.285628 0.012093 0.958264
vn 0.285627 0.012093 0.958264
vn 0.285628 0.012093 0.958264
vn -0.611291 0.669634 0.421798
vn -0.611291 0.669634 0.421798
vn -0.611291 0.669634 0.421798
vn -0.995799 0.018421 0.089689
vn -0.995799 0.018421 0.089689
vn -0.995799 0.018421 0.089689
vn -0.043046 -0.996136 -0.076551
vn -0.043046 -0.996136 -0.076551
vn -0.043046 -0.996136 -0.076551
vn 0.926242 -0.376310 0.021579
vn 0.926242 -0.376310 0.021579
vn 0.926242 -0.376310 0.021579
vn 0.441080 0.249312 0.862144
vn 0.441080 0.249312 0.862144
vn 0.441080 0.249312 0.862144
vn -0.298671 0.273219 0.914411
vn -0.298671 0.273219 0.914411
vn -0.298671 0.273219 0.914411
vn -0.640654 -0.210031 0.738545
vn -0.640654 -0.210031 0.738545
vn -0.640654 -0.210031 0.738545
vn 0.022490 -0.795730 0.605233
vn 0.022490 -0.795730 0.605233
vn 0.022490 -0.795730 0.605233
vn 0.621543 -0.412657 0.665882
vn 0.621543 -0.412657 0.665882
vn 0.621543 -0.412657 0.665882
s off
g pPlatonic1
usemtl initialShadingGroup
f 1/1/1 3/13/2 2/2/3
f 1/1/4 4/14/5 3/13/6
f 1/1/7 5/15/8 4/14/9
f 1/1/10 6/6/11 5/15/12
f 1/1/13 2/2/14 6/6/15
f 2/2/16 3/13/17 8/8/18
f 3/3/19 4/4/20 9/9/21
f 4/4/22 5/5/23 10/10/24
f 5/15/25 6/6/26 11/11/27
f 6/6/28 2/2/29 7/7/30
f 2/2/31 8/8/32 7/7/33
f 3/3/34 9/9/35 8/8/36
f 4/4/37 10/10/38 9/9/39
f 5/5/40 11/11/41 10/10/42
f 6/6/43 7/7/44 11/11/45
f 7/7/46 8/8/47 12/12/48
f 8/8/49 9/9/50 12/12/51
f 9/9/52 10/10/53 12/12/54
f 10/10/55 11/11/56 12/12/57
f 11/11/58 7/7/59 12/12/60
