# This file uses centimeters as units for non-parametric coordinates.

mtllib rock_6.mtl
g default
v 0.102672 -1.028109 0.030941
v 1.286178 -0.632681 -0.795832
v -0.323036 -0.811195 -1.387624
v -1.331431 -0.598851 -0.036593
v -0.431370 -0.468311 1.314258
v 1.218580 -0.587610 0.926102
v 1.132661 0.578782 0.029316
v 0.431369 0.468313 -1.314258
v -0.576400 0.583500 -0.900784
v -1.286178 0.632681 0.795832
v 0.521806 0.831263 1.394902
v -0.087297 1.731701 -0.306724
vt 1.000000 0.500000
vt 0.838104 0.676208
vt 0.088104 0.823792
vt 0.176208 0.500000
vt 0.088104 0.176208
vt 0.838104 0.323792
vt 0.676208 0.500000
vt 0.588104 0.823792
vt 0.338104 0.676208
vt 0.338104 0.323792
vt 0.588104 0.176208
vt 0.500000 0.500000
vt 1.088104 0.823792
vt 1.176208 0.500000
vt 1.088104 0.176208
vn 0.180884 -0.962645 -0.201482
vn 0.180884 -0.962645 -0.201482
vn 0.180884 -0.962645 -0.201482
vn -0.283565 -0.956996 -0.061238
vn -0.283565 -0.956996 -0.061238
vn -0.283565 -0.956996 -0.061238
vn -0.287360 -0.915988 0.279982
vn -0.287360 -0.915988 0.279982
vn -0.287360 -0.915988 0.279982
vn 0.030629 -0.911427 0.410321
vn 0.030629 -0.911427 0.410321
vn 0.030629 -0.911427 0.410321
vn 0.340419 -0.939508 0.037955
vn 0.340419 -0.939508 0.037955
vn 0.340419 -0.939508 0.037955
vn 0.356175 -0.157187 -0.921103
vn 0.356175 -0.157187 -0.921103
vn 0.356175 -0.157187 -0.921103
vn -0.794599 0.066313 -0.603503
vn -0.794599 0.066313 -0.603503
vn -0.794599 0.066313 -0.603503
vn -0.767284 -0.339542 0.544047
vn -0.767284 -0.339542 0.544047
vn -0.767284 -0.339542 0.544047
vn 0.209169 -0.212645 0.954479
vn 0.209169 -0.212645 0.954479
vn 0.209169 -0.212645 0.954479
vn 0.994200 0.101206 0.036380
vn 0.994200 0.101206 0.036380
vn 0.994200 0.101206 0.036380
vn 0.795805 0.406533 -0.448804
vn 0.795805 0.406533 -0.448804
vn 0.795805 0.406533 -0.448804
vn -0.342211 0.253647 -0.904740
vn -0.342211 0.253647 -0.904740
vn -0.342211 0.253647 -0.904740
vn -0.880716 0.287029 -0.376767
vn -0.880716 0.287029 -0.376767
vn -0.880716 0.287029 -0.376767
vn -0.327251 0.182490 0.927148
vn -0.327251 0.182490 0.927148
vn -0.327251 0.182490 0.927148
vn 0.884622 0.323430 0.335911
vn 0.884622 0.323430 0.335911
vn 0.884622 0.323430 0.335911
vn 0.684136 0.605328 -0.406862
vn 0.684135 0.605328 -0.406862
vn 0.684135 0.605328 -0.406862
vn -0.269151 0.530526 -0.803804
vn -0.269151 0.530526 -0.803804
vn -0.269151 0.530526 -0.803804
vn -0.786510 0.512963 -0.343905
vn -0.786510 0.512963 -0.343905
vn -0.786510 0.512963 -0.343905
vn -0.262373 0.810926 0.523029
vn -0.262373 0.810926 0.523029
vn -0.262373 0.810926 0.523029
vn 0.655282 0.738997 0.156489
vn 0.655282 0.738997 0.156489
vn 0.655282 0.738997 0.156489
s off
g pPlatonic1
usemtl initialShadingGroup
f 1/1/1 3/13/2 2/2/3
f 1/1/4 4/14/5 3/13/6
f 1/1/7 5/15/8 4/14/9
f 1/1/10 6/6/11 5/15/12
f 1/1/13 2/2/14 6/6/15
f 2/2/16 3/13/17 8/8/18
f 3/3/19 4/4/20 9/9/21
f 4/4/22 5/5/23 10/10/24
f 5/15/25 6/6/26 11/11/27
f 6/6/28 2/2/29 7/7/30
f 2/2/31 8/8/32 7/7/33
f 3/3/34 9/9/35 8/8/36
f 4/4/37 10/10/38 9/9/39
f 5/5/40 11/11/41 10/10/42
f 6/6/43 7/7/44 11/11/45
f 7/7/46 8/8/47 12/12/48
f 8/8/49 9/9/50 12/12/51
f 9/9/52 10/10/53 12/12/54
f 10/10/55 11/11/56 12/12/57
f 11/11/58 7/7/59 12/12/60
